<svg xmlns="http://www.w3.org/2000/svg" viewBox="0 0 512 512">
  <defs><linearGradient id="g" x1="0" y1="0" x2="1" y2="1"><stop stop-color="#2f9270"/><stop offset="1" stop-color="#155b46"/></linearGradient></defs>
  <rect width="512" height="512" rx="112" fill="url(#g)"/>
  <circle cx="256" cy="270" r="143" fill="none" stroke="#eef7f1" stroke-width="24"/>
  <circle cx="256" cy="270" r="92" fill="#eef7f1" opacity=".13"/>
  <path d="M153 114h70l18 29h91l18-29h21c22 0 40 18 40 40v69c0 22-18 40-40 40h-16c-4-51-47-92-99-92s-95 41-99 92h-16c-22 0-40-18-40-40v-69c0-22 18-40 40-40h12z" fill="#f7fbf8"/>
  <circle cx="256" cy="244" r="54" fill="#23795e"/>
  <circle cx="256" cy="244" r="30" fill="#c7e16e"/>
  <path d="M333 376c41-49 79-34 78-34-4 51-31 79-78 79-27 0-49-14-61-38 18 4 40 2 61-7z" fill="#c7e16e"/>
</svg>
